<?xml version="1.0" encoding="UTF-8" standalone="no"?>
<!-- Uploaded to: SVG Repo, www.svgrepo.com, Generator: SVG Repo Mixer Tools -->

<svg
   fill="#000000"
   width="1336"
   height="752.07098"
   viewBox="0 0 53.44 30.082839"
   version="1.1"
   id="svg6"
   sodipodi:docname="ubik.svg"
   inkscape:version="1.2.2 (b0a8486541, 2022-12-01)"
   xmlns:inkscape="http://www.inkscape.org/namespaces/inkscape"
   xmlns:sodipodi="http://sodipodi.sourceforge.net/DTD/sodipodi-0.dtd"
   xmlns="http://www.w3.org/2000/svg"
   xmlns:svg="http://www.w3.org/2000/svg"
   xmlns:rdf="http://www.w3.org/1999/02/22-rdf-syntax-ns#"
   xmlns:cc="http://creativecommons.org/ns#"
   xmlns:dc="http://purl.org/dc/elements/1.1/">
  <defs
     id="defs10" />
  <sodipodi:namedview
     id="namedview8"
     pagecolor="#ffffff"
     bordercolor="#000000"
     borderopacity="0.25"
     inkscape:showpageshadow="2"
     inkscape:pageopacity="0.0"
     inkscape:pagecheckerboard="0"
     inkscape:deskcolor="#d1d1d1"
     showgrid="false"
     inkscape:zoom="0.71211064"
     inkscape:cx="148.15114"
     inkscape:cy="344.04766"
     inkscape:window-width="1920"
     inkscape:window-height="1011"
     inkscape:window-x="0"
     inkscape:window-y="0"
     inkscape:window-maximized="1"
     inkscape:current-layer="svg6" />
  <title
     id="title2">spray-can</title>
  <path
     d="m 0.362,3.0788485 c 1.07,-2.52799995 4.365,-2.91099995 6.159,-0.654 2.377,-4.93 8.79,-1.46599995 7.143,2.622 v 0 c 1.637,0.147 2.588,1.714 2.396,3.145 -0.646,1.9710005 -2.114,2.8090005 -3.85,2.8190005 1.706,0.447 3.445,0.345 4.52,-1.0990005 l 5.075,1.9140005 -6.74,3.207 c -1.082,-1.212 -2.716,-1.277 -4.322,-0.857 1.25,0.007 2.362,0.445 3.127,1.426 l -0.018,0.009 c 0.085,0.093 0.159,0.187 0.224,0.281 0.045,0.07 0.089,0.142 0.131,0.216 0.772,1.468 -0.732,2.962 -2.286,2.636 1.429,2.269 -1.153,4.034 -2.975,3.56 0.627,-1.608 -0.147,-3.12 -1.357,-4.344 0.88,1.544 0.866,3.279 -0.618,4.853 -1.641,1.152 -4.631,0.96 -5.185,-1.786 -0.416,0.465 -1.322,0.817 -1.786,0.878 V 2.9328485 l 0.364,0.146 z"
     id="path219"
     sodipodi:nodetypes="ccssccccccccccccccccccc"
     style="fill:#800080" />
  <path
     d="m 18.752,16.022849 c 0,-1.236 1.098,-2.256 2.679,-2.715 v -0.987 c 0.138,0.159 0.339,0.26 0.565,0.26 0.415,0 0.751,-0.34 0.751,-0.759 0,-0.419 -0.336,-0.759 -0.751,-0.759 -0.225,0 -0.427,0.101 -0.565,0.26 v -1.024 c 0,-0.4160005 0.854,-0.7340005 1.907,-0.7340005 1.053,0 1.907,0.317 1.907,0.7340005 v 2.994 c 1.581,0.437 2.68,1.426 2.68,2.73 0,0.104 -0.028,0.205 -0.081,0.303 h 0.069 v 13.757 h -9.15 v -13.757 h 0.069 c -0.053,-0.098 -0.081,-0.2 -0.081,-0.303 v 0 z"
     id="path4"
     sodipodi:nodetypes="cccssscssscsccccccscc"
     style="fill:#7c916f;fill-opacity:1" />
  <metadata
     id="metadata2624">
    <rdf:RDF>
      <cc:Work
         rdf:about="">
        <dc:title>spray-can</dc:title>
      </cc:Work>
    </rdf:RDF>
  </metadata>
</svg>
